<svg xmlns="http://www.w3.org/2000/svg" xmlns:xlink="http://www.w3.org/1999/xlink" width="100" zoomAndPan="magnify" viewBox="0 0 75 37.5" height="50" preserveAspectRatio="xMidYMid meet" version="1.0"><defs><clipPath id="f18dd3a4d9"><path d="M 0.492188 0 L 74.503906 0 L 74.503906 37.007812 L 0.492188 37.007812 Z M 0.492188 0 " clip-rule="nonzero"/></clipPath><clipPath id="4c9ab73310"><path d="M 28.839844 9.84375 L 45.863281 9.84375 L 45.863281 26.867188 L 28.839844 26.867188 Z M 28.839844 9.84375 " clip-rule="nonzero"/></clipPath><clipPath id="dae2a9b063"><path d="M 0.492188 0 L 74.503906 0 L 74.503906 3 L 0.492188 3 Z M 0.492188 0 " clip-rule="nonzero"/></clipPath><clipPath id="b85d237cdf"><path d="M 0.492188 34 L 74.503906 34 L 74.503906 37.007812 L 0.492188 37.007812 Z M 0.492188 34 " clip-rule="nonzero"/></clipPath></defs><g clip-path="url(#f18dd3a4d9)"><path fill="#ffffff" d="M 0.492188 0 L 74.507812 0 L 74.507812 44.40625 L 0.492188 44.40625 Z M 0.492188 0 " fill-opacity="1" fill-rule="nonzero"/><path fill="#ffffff" d="M 0.492188 0 L 74.507812 0 L 74.507812 37.007812 L 0.492188 37.007812 Z M 0.492188 0 " fill-opacity="1" fill-rule="nonzero"/><path fill="#da1212" d="M 0.492188 0 L 74.507812 0 L 74.507812 37.007812 L 0.492188 37.007812 Z M 0.492188 0 " fill-opacity="1" fill-rule="nonzero"/></g><g clip-path="url(#4c9ab73310)"><path fill="#ffffff" d="M 37.351562 9.84375 C 32.652344 9.84375 28.839844 13.65625 28.839844 18.355469 C 28.839844 23.054688 32.652344 26.867188 37.351562 26.867188 C 42.054688 26.867188 45.863281 23.054688 45.863281 18.355469 C 45.863281 13.65625 42.054688 9.84375 37.351562 9.84375 " fill-opacity="1" fill-rule="nonzero"/></g><g clip-path="url(#dae2a9b063)"><path stroke-linecap="butt" transform="matrix(2.960526, 0, 0, 2.960526, 0.493421, 1.480264)" fill="none" stroke-linejoin="miter" d="M -0.000416667 0.0000691319 L 25.000418 0.0000691319 " stroke="#ffbd59" stroke-width="1" stroke-opacity="1" stroke-miterlimit="4"/></g><g clip-path="url(#b85d237cdf)"><path stroke-linecap="butt" transform="matrix(2.960526, 0, 0, 2.960526, 0.493421, 35.526315)" fill="none" stroke-linejoin="miter" d="M -0.000416667 0.000347389 L 25.000418 0.000347389 " stroke="#ffbd59" stroke-width="1" stroke-opacity="1" stroke-miterlimit="4"/></g></svg>